<?xml version="1.0" standalone="no"?>
<!DOCTYPE svg PUBLIC "-//W3C//DTD SVG 20010904//EN"
 "http://www.w3.org/TR/2001/REC-SVG-20010904/DTD/svg10.dtd">
<svg version="1.0" xmlns="http://www.w3.org/2000/svg"
 width="512.000000pt" height="512.000000pt" viewBox="0 0 512.000000 512.000000"
 preserveAspectRatio="xMidYMid meet">

<g transform="translate(0.000000,512.000000) scale(0.100000,-0.100000)"
fill="#ffffff" stroke="none">
<path d="M925 4153 c-60 -8 -181 -42 -239 -68 -208 -92 -379 -271 -465 -486
-59 -148 -61 -177 -61 -988 0 -480 4 -758 11 -797 17 -95 78 -210 149 -282 70
-70 122 -104 219 -141 65 -25 69 -25 408 -29 l341 -3 6 -34 c13 -66 74 -170
134 -227 192 -183 472 -183 664 0 60 57 121 161 134 228 l6 34 1124 0 1124 0
0 -95 c0 -88 2 -98 25 -120 32 -33 78 -33 110 0 23 22 25 32 25 120 l0 95 135
0 c131 0 137 1 160 25 16 15 25 36 25 55 0 51 -38 80 -105 80 l-55 0 0 56 c0
31 -5 75 -12 98 -16 55 -99 138 -154 154 -94 28 -169 8 -239 -63 -57 -56 -75
-102 -75 -189 l0 -56 -161 0 -161 0 16 22 c60 83 98 148 118 206 l23 67 0 800
c0 793 0 801 -22 880 -94 342 -361 591 -698 650 -76 13 -254 15 -1284 14 -658
-1 -1209 -4 -1226 -6z m2578 -189 c111 -40 182 -83 267 -161 110 -102 199
-262 216 -391 l7 -52 -317 0 -316 0 0 96 c0 53 -5 115 -12 138 -16 55 -99 138
-154 154 -57 17 -491 17 -548 0 -55 -16 -138 -99 -154 -154 -7 -23 -12 -85
-12 -138 l0 -96 -1076 0 -1077 0 7 51 c36 269 298 531 578 578 29 5 600 8
1278 7 l1225 -1 88 -31z m-328 -389 l25 -24 0 -1016 0 -1015 -280 0 -280 0 0
1015 0 1016 25 24 24 25 231 0 231 0 24 -25z m-695 -815 l0 -440 -1080 0
-1080 0 0 440 0 440 1080 0 1080 0 0 -440z m1520 0 l0 -440 -320 0 -320 0 0
440 0 440 320 0 320 0 0 -440z m-1520 -920 l0 -320 -124 0 -124 0 -6 34 c-13
67 -74 171 -134 228 -192 183 -472 183 -664 0 -60 -57 -121 -161 -134 -228
l-6 -35 -332 3 -331 3 -67 32 c-93 44 -151 100 -196 191 l-37 76 -4 168 -3
168 1081 0 1081 0 0 -320z m1519 152 l-4 -168 -37 -76 c-45 -91 -103 -147
-196 -191 -66 -31 -71 -32 -234 -35 l-168 -4 0 321 0 321 321 0 321 0 -3 -168z
m-2104 -263 c63 -30 123 -90 155 -154 20 -41 25 -65 25 -135 -1 -77 -4 -91
-34 -148 -38 -70 -70 -101 -145 -140 -43 -22 -64 -26 -136 -26 -70 -1 -94 4
-135 24 -260 128 -238 495 35 594 63 23 170 16 235 -15z m2720 -74 c21 -20 25
-34 25 -80 l0 -55 -80 0 -80 0 0 55 c0 67 29 105 80 105 19 0 40 -9 55 -25z"/>
<path d="M2785 2815 c-22 -21 -25 -33 -25 -95 0 -62 3 -74 25 -95 15 -16 36
-25 55 -25 19 0 40 9 55 25 22 21 25 33 25 95 0 62 -3 74 -25 95 -15 16 -36
25 -55 25 -19 0 -40 -9 -55 -25z"/>
<path d="M560 3048 c-74 -51 -75 -56 -75 -288 0 -232 1 -237 75 -287 33 -23
36 -23 400 -23 364 0 367 0 400 23 74 50 75 55 75 287 0 232 -1 237 -75 288
-33 22 -36 22 -400 22 -364 0 -367 0 -400 -22z m720 -288 l0 -150 -320 0 -320
0 0 150 0 150 320 0 320 0 0 -150z"/>
<path d="M1705 1495 c-50 -49 -15 -135 55 -135 19 0 40 9 55 25 16 15 25 36
25 55 0 19 -9 40 -25 55 -15 16 -36 25 -55 25 -19 0 -40 -9 -55 -25z"/>
</g>
</svg>
